<svg width="24" height="24" viewBox="0 0 24 24" fill="none" xmlns="http://www.w3.org/2000/svg">
<g clip-path="url(#clip0_1_218)">
<path d="M16 13V21" stroke="currentColor" stroke-width="2" stroke-linecap="round" stroke-linejoin="round"/>
<path d="M8 13V21" stroke="currentColor" stroke-width="2" stroke-linecap="round" stroke-linejoin="round"/>
<path d="M12 15V23" stroke="currentColor" stroke-width="2" stroke-linecap="round" stroke-linejoin="round"/>
<path d="M20 16.58C21.0512 16.1196 21.9121 15.3116 22.4381 14.2915C22.9641 13.2715 23.1231 12.1016 22.8886 10.9782C22.6541 9.85476 22.0402 8.84622 21.15 8.12184C20.2599 7.39746 19.1476 7.00135 18 7H16.74C16.423 5.77252 15.8189 4.63795 14.9773 3.6898C14.1358 2.74166 13.0809 2.00708 11.8998 1.54662C10.7186 1.08617 9.44491 0.91302 8.18368 1.04145C6.92246 1.16987 5.70981 1.5962 4.64569 2.28529C3.58158 2.97437 2.69646 3.90649 2.0633 5.0048C1.43014 6.10311 1.06707 7.33618 1.00401 8.60235C0.94095 9.86853 1.17971 11.1316 1.7006 12.2874C2.2215 13.4431 3.00962 14.4586 4 15.25" stroke="currentColor" stroke-width="2" stroke-linecap="round" stroke-linejoin="round"/>
</g>
<defs>
<clipPath id="clip0_1_218">
<rect width="24" height="24" fill="white"/>
</clipPath>
</defs>
</svg>
