<svg width="48" height="48" viewBox="0 0 48 48" fill="none" xmlns="http://www.w3.org/2000/svg">
<path d="M48 0V48H0V12L11.625 0H48Z" fill="#fff"/>
<path d="M23.6844 19.6182C23.0181 20.2846 22.3147 20.74 21.5742 20.9843C20.8412 21.2286 20.0453 21.3508 19.1864 21.3508C18.3201 21.3508 17.5316 21.2212 16.8208 20.9621C16.1174 20.7029 15.5176 20.3401 15.0216 19.8737C14.5329 19.3998 14.1553 18.8297 13.8887 18.1633C13.6296 17.4969 13.5 16.7528 13.5 15.931C13.5 15.1461 13.6296 14.4205 13.8887 13.7541C14.1553 13.0804 14.5107 12.5065 14.9549 12.0327C15.4066 11.5514 15.936 11.1775 16.5431 10.9109C17.1503 10.637 17.7944 10.5 18.4756 10.5C19.1864 10.5 19.8047 10.6481 20.3303 10.9443C20.856 11.2404 21.2374 11.6736 21.4743 12.2437V10.7443H23.5289V15.5645H21.4743C21.4743 14.6537 21.2225 13.9281 20.7191 13.3876C20.223 12.8397 19.5751 12.5658 18.7755 12.5658C18.4571 12.5658 18.1202 12.6324 17.7648 12.7657C17.4168 12.8915 17.0947 13.0915 16.7986 13.3654C16.5098 13.6394 16.2692 13.9874 16.0767 14.4094C15.8841 14.8314 15.7879 15.3386 15.7879 15.931C15.7879 16.5085 15.8804 17.0083 16.0655 17.4303C16.2506 17.8449 16.4913 18.1892 16.7875 18.4632C17.091 18.7297 17.4464 18.9333 17.8537 19.074C18.2683 19.2073 18.694 19.2739 19.1309 19.2739C19.8787 19.2739 20.5266 19.1592 21.0745 18.9296C21.6298 18.6927 22.1073 18.3817 22.5072 17.9967L23.6844 19.6182Z" fill="#currentColor"/>
<path d="M34.8476 17.9967C34.8476 18.6705 34.6958 19.2184 34.3922 19.6404C34.0886 20.0625 33.6962 20.4031 33.2149 20.6622C32.7411 20.9214 32.208 21.0991 31.6156 21.1953C31.0307 21.299 30.4569 21.3508 29.8942 21.3508C28.9538 21.3508 28.0172 21.2138 27.0843 20.9399C26.1514 20.6659 25.3443 20.3068 24.6631 19.8626L25.6183 17.9745C26.4327 18.4484 27.1768 18.7853 27.8506 18.9852C28.5318 19.1777 29.213 19.2739 29.8942 19.2739C30.8197 19.2739 31.4935 19.1777 31.9155 18.9852C32.3375 18.7853 32.5486 18.5113 32.5486 18.1633C32.5486 17.993 32.4893 17.8523 32.3709 17.7413C32.2524 17.6302 32.0562 17.5303 31.7822 17.4414C31.5083 17.3452 31.1455 17.2526 30.6938 17.1638C30.2496 17.0675 29.6943 16.9675 29.0279 16.8639C28.4948 16.775 27.9876 16.6677 27.5063 16.5418C27.0325 16.4085 26.6141 16.2234 26.2513 15.9865C25.8885 15.7496 25.596 15.4497 25.3739 15.0869C25.1592 14.7241 25.0518 14.2687 25.0518 13.7208C25.0518 13.1655 25.1925 12.6842 25.4739 12.277C25.7626 11.8624 26.1365 11.5218 26.5956 11.2552C27.0621 10.9887 27.5841 10.7962 28.1616 10.6777C28.7391 10.5592 29.3166 10.5 29.8942 10.5C30.7086 10.5 31.4972 10.6074 32.2598 10.8221C33.0298 11.0294 33.7036 11.3293 34.2811 11.7217L33.3704 13.4987C32.7929 13.1359 32.2302 12.8915 31.6823 12.7657C31.1418 12.6324 30.5457 12.5658 29.8942 12.5658C29.6202 12.5658 29.3352 12.5806 29.039 12.6102C28.7428 12.6398 28.4689 12.699 28.2171 12.7879C27.9654 12.8693 27.7544 12.9841 27.5841 13.1322C27.4212 13.2729 27.3397 13.4469 27.3397 13.6542C27.3397 13.9281 27.5804 14.154 28.0616 14.3317C28.5503 14.502 29.3796 14.6722 30.5494 14.8425C31.1862 14.9314 31.7674 15.0462 32.2931 15.1868C32.8188 15.3201 33.2705 15.5052 33.6481 15.7422C34.0257 15.9717 34.3182 16.2716 34.5255 16.6418C34.7402 17.0046 34.8476 17.4562 34.8476 17.9967Z" fill="#currentColor"/>
<path d="M22.3628 37.4438H15.4103V35.378H17.7426V27.1372C17.6389 27.5 17.4575 27.8221 17.1984 28.1034C16.9466 28.3848 16.6394 28.6217 16.2766 28.8142C15.9212 28.9993 15.5213 29.1437 15.0771 29.2474C14.6402 29.3436 14.1886 29.3917 13.7221 29.3917V27.0927C14.2256 27.0927 14.7143 27.0113 15.1882 26.8484C15.6694 26.6781 16.0989 26.4227 16.4765 26.0821C16.8541 25.7415 17.1577 25.3157 17.3872 24.8049C17.6241 24.2866 17.7426 23.6683 17.7426 22.9501H20.0416V35.378H22.3628V37.4438Z" fill="#currentColor"/>
<path d="M24.7298 34.4673C24.7298 33.8602 24.8926 33.3308 25.2184 32.8791C25.5442 32.42 25.97 32.0387 26.4957 31.7352C27.0288 31.4316 27.6359 31.2058 28.3171 31.0577C29.0057 30.9022 29.7054 30.8244 30.4162 30.8244C30.8086 30.8244 31.1455 30.8319 31.4268 30.8467C31.7082 30.8615 31.9932 30.8837 32.282 30.9133V30.5024C32.282 29.9619 32.071 29.5583 31.649 29.2918C31.2343 29.0252 30.6864 28.892 30.0052 28.892C29.3833 28.892 28.7502 28.9808 28.1061 29.1585C27.4619 29.3288 26.8511 29.5805 26.2735 29.9137L25.3406 28.1145C26.0218 27.7221 26.7511 27.4148 27.5285 27.1927C28.3134 26.9632 29.1389 26.8484 30.0052 26.8484C30.5679 26.8484 31.1196 26.9113 31.6601 27.0372C32.208 27.1631 32.6966 27.3704 33.1261 27.6592C33.5629 27.9479 33.9109 28.3255 34.1701 28.792C34.4292 29.2511 34.5588 29.8212 34.5588 30.5024V37.4438H32.282V35.9222C31.9192 36.4849 31.3824 36.9218 30.6716 37.2328C29.9682 37.5437 29.2093 37.6992 28.3948 37.6992C27.8913 37.6992 27.4138 37.6289 26.9621 37.4882C26.5179 37.3549 26.1328 37.1513 25.8071 36.8774C25.4813 36.6034 25.2184 36.2665 25.0185 35.8667C24.826 35.4595 24.7298 34.993 24.7298 34.4673ZM28.9835 35.6446C29.4351 35.6446 29.8571 35.589 30.2496 35.478C30.6494 35.3595 31.0011 35.2003 31.3047 35.0004C31.6082 34.7931 31.8452 34.545 32.0155 34.2563C32.1932 33.9675 32.282 33.6491 32.282 33.3011V32.9124C31.9192 32.8532 31.5786 32.8199 31.2602 32.8125C30.9419 32.8051 30.6605 32.8014 30.4162 32.8014C29.2907 32.8014 28.4392 32.9494 27.8617 33.2456C27.2916 33.5418 27.0065 33.9083 27.0065 34.3451C27.0065 35.2114 27.6655 35.6446 28.9835 35.6446Z" fill="#currentColor"/>
</svg>
